<svg width="15" height="8" viewBox="0 0 15 8" fill="none" xmlns="http://www.w3.org/2000/svg">
<g id="eva:arrow-back-fill">
<path id="Vector" d="M11.8748 3.66668H4.46226L6.73101 2.21334C6.83709 2.14527 6.88813 2.05751 6.87289 1.96937C6.85766 1.88123 6.77739 1.79992 6.64976 1.74334C6.52212 1.68676 6.35757 1.65954 6.1923 1.66767C6.02704 1.6758 5.87459 1.7186 5.76851 1.78668L2.64351 3.78668C2.62248 3.80259 2.60368 3.8193 2.58726 3.83668C2.58726 3.85334 2.58726 3.86334 2.54351 3.88001C2.51518 3.91823 2.50034 3.95891 2.49976 4.00001C2.50034 4.04111 2.51518 4.08179 2.54351 4.12001C2.54351 4.13668 2.54351 4.14668 2.58726 4.16334C2.60368 4.18072 2.62248 4.19744 2.64351 4.21334L5.76851 6.21334C5.82727 6.25097 5.90086 6.28123 5.98404 6.30197C6.06721 6.32271 6.15794 6.33342 6.24976 6.33334C6.39579 6.3335 6.53731 6.30637 6.64976 6.25668C6.71304 6.22869 6.76536 6.19433 6.8037 6.15554C6.84205 6.11676 6.86567 6.07433 6.87322 6.03067C6.88076 5.98701 6.87209 5.94298 6.84769 5.90112C6.82328 5.85925 6.78363 5.82036 6.73101 5.78668L4.46226 4.33334H11.8748C12.0405 4.33334 12.1995 4.29822 12.3167 4.23571C12.4339 4.1732 12.4998 4.08842 12.4998 4.00001C12.4998 3.91161 12.4339 3.82682 12.3167 3.76431C12.1995 3.7018 12.0405 3.66668 11.8748 3.66668Z" fill="white"/>
</g>
</svg>
