<svg width="14" height="8" viewBox="0 0 14 8" fill="none" xmlns="http://www.w3.org/2000/svg">
<g id="eva:arrow-back-fill">
<path id="Vector" d="M2.91687 3.66668H9.8352L7.7177 2.21334C7.61869 2.14527 7.57105 2.05751 7.58527 1.96937C7.5995 1.88123 7.67441 1.79992 7.79354 1.74334C7.91266 1.68676 8.06624 1.65954 8.22049 1.66767C8.37474 1.6758 8.51702 1.7186 8.61604 1.78668L11.5327 3.78668C11.5523 3.80259 11.5699 3.8193 11.5852 3.83668C11.5852 3.85334 11.5852 3.86334 11.626 3.88001C11.6525 3.91823 11.6663 3.95891 11.6669 4.00001C11.6663 4.04111 11.6525 4.08179 11.626 4.12001C11.626 4.13668 11.626 4.14668 11.5852 4.16334C11.5699 4.18072 11.5523 4.19744 11.5327 4.21334L8.61604 6.21334C8.56119 6.25097 8.49251 6.28123 8.41488 6.30197C8.33724 6.32271 8.25257 6.33342 8.16687 6.33334C8.03057 6.3335 7.89849 6.30637 7.79354 6.25668C7.73447 6.22869 7.68564 6.19433 7.64985 6.15554C7.61407 6.11676 7.59202 6.07433 7.58497 6.03067C7.57793 5.98701 7.58603 5.94298 7.6088 5.90112C7.63158 5.85925 7.66859 5.82036 7.7177 5.78668L9.8352 4.33334H2.91687C2.76216 4.33334 2.61379 4.29822 2.50439 4.23571C2.39499 4.1732 2.33354 4.08842 2.33354 4.00001C2.33354 3.91161 2.39499 3.82682 2.50439 3.76431C2.61379 3.7018 2.76216 3.66668 2.91687 3.66668Z" fill="#F53838"/>
</g>
</svg>
