<svg width="70" height="28" viewBox="0 0 70 28" fill="none" xmlns="http://www.w3.org/2000/svg">
<path d="M1.43597 19.0597V16.2745L8.41928 5.27273H10.8206V9.12784H9.3994L4.99705 16.0948V16.2255H14.9207V19.0597H1.43597ZM9.46474 22V18.2102L9.53008 16.9769V5.27273H12.8461V22H9.46474ZM19.029 22.2124C18.4899 22.2124 18.0271 22.0218 17.6405 21.6406C17.2594 21.254 17.0688 20.7912 17.0688 20.2521C17.0688 19.7185 17.2594 19.2611 17.6405 18.88C18.0271 18.4988 18.4899 18.3082 19.029 18.3082C19.5517 18.3082 20.0091 18.4988 20.4012 18.88C20.7932 19.2611 20.9892 19.7185 20.9892 20.2521C20.9892 20.6115 20.8967 20.9409 20.7115 21.2404C20.5319 21.5344 20.295 21.7713 20.001 21.951C19.7069 22.1252 19.3829 22.2124 19.029 22.2124ZM29.7878 22.2287C28.6334 22.2287 27.6043 22.0163 26.7004 21.5916C25.802 21.1669 25.0887 20.5816 24.5605 19.8356C24.0324 19.0896 23.7574 18.2347 23.7356 17.271H27.166C27.2041 17.9189 27.4764 18.4444 27.9828 18.8473C28.4891 19.2502 29.0908 19.4517 29.7878 19.4517C30.3432 19.4517 30.8333 19.3292 31.258 19.0842C31.6881 18.8337 32.023 18.4879 32.2626 18.0469C32.5076 17.6004 32.6301 17.0885 32.6301 16.5114C32.6301 15.9233 32.5049 15.406 32.2544 14.9595C32.0094 14.513 31.6691 14.1645 31.2335 13.9141C30.7979 13.6636 30.2996 13.5356 29.7388 13.5302C29.2487 13.5302 28.7723 13.6309 28.3095 13.8324C27.8521 14.0339 27.4954 14.3088 27.2395 14.6573L24.095 14.0938L24.8872 5.27273H35.1131V8.16406H27.8031L27.3702 12.354H27.4682C27.7622 11.9402 28.206 11.5972 28.7995 11.3249C29.393 11.0527 30.0573 10.9165 30.7924 10.9165C31.7998 10.9165 32.6982 11.1534 33.4877 11.6271C34.2773 12.1009 34.9007 12.7515 35.3581 13.5792C35.8155 14.4014 36.0415 15.3488 36.036 16.4215C36.0415 17.5487 35.7801 18.5505 35.2519 19.4272C34.7292 20.2984 33.9968 20.9845 33.0548 21.4854C32.1183 21.9809 31.0293 22.2287 29.7878 22.2287Z" fill="#FF5722"/>
<path d="M63.2517 16.3201C62.9927 16.5711 62.8737 16.9341 62.9327 17.2901L63.8217 22.2101C63.8967 22.6271 63.7207 23.0491 63.3717 23.2901C63.0297 23.5401 62.5747 23.5701 62.2017 23.3701L57.7727 21.0601C57.6187 20.9781 57.4477 20.9341 57.2727 20.9291H57.0017C56.9077 20.9431 56.8157 20.9731 56.7317 21.0191L52.3017 23.3401C52.0827 23.4501 51.8347 23.4891 51.5917 23.4501C50.9997 23.3381 50.6047 22.7741 50.7017 22.1791L51.5917 17.2591C51.6507 16.9001 51.5317 16.5351 51.2727 16.2801L47.6617 12.7801C47.3597 12.4871 47.2547 12.0471 47.3927 11.6501C47.5267 11.2541 47.8687 10.9651 48.2817 10.9001L53.2517 10.1791C53.6297 10.1401 53.9617 9.91012 54.1317 9.57012L56.3217 5.08012C56.3737 4.98012 56.4407 4.88812 56.5217 4.81012L56.6117 4.74012C56.6587 4.68812 56.7127 4.64512 56.7727 4.61012L56.8817 4.57012L57.0517 4.50012H57.4727C57.8487 4.53912 58.1797 4.76412 58.3527 5.10012L60.5717 9.57012C60.7317 9.89712 61.0427 10.1241 61.4017 10.1791L66.3717 10.9001C66.7917 10.9601 67.1427 11.2501 67.2817 11.6501C67.4127 12.0511 67.2997 12.4911 66.9917 12.7801L63.2517 16.3201Z" fill="#FF5722"/>
</svg>
