<svg width="69" height="28" viewBox="0 0 69 28" fill="none" xmlns="http://www.w3.org/2000/svg">
<path d="M1.10263 19.0597V16.2745L8.08594 5.27273H10.4872V9.12784H9.06605L4.66371 16.0948V16.2255H14.5874V19.0597H1.10263ZM9.13139 22V18.2102L9.19673 16.9769V5.27273H12.5128V22H9.13139ZM18.6957 22.2124C18.1566 22.2124 17.6938 22.0218 17.3072 21.6406C16.926 21.254 16.7354 20.7912 16.7354 20.2521C16.7354 19.7185 16.926 19.2611 17.3072 18.88C17.6938 18.4988 18.1566 18.3082 18.6957 18.3082C19.2184 18.3082 19.6758 18.4988 20.0678 18.88C20.4599 19.2611 20.6559 19.7185 20.6559 20.2521C20.6559 20.6115 20.5633 20.9409 20.3782 21.2404C20.1985 21.5344 19.9616 21.7713 19.6676 21.951C19.3736 22.1252 19.0496 22.2124 18.6957 22.2124ZM29.0461 22.2287C27.7883 22.2287 26.6693 22.0245 25.6892 21.6161C24.7145 21.2023 23.9495 20.6387 23.3941 19.9254C22.8387 19.2121 22.561 18.4035 22.561 17.4996C22.561 16.8027 22.7189 16.1629 23.0347 15.5803C23.356 14.9922 23.7916 14.5049 24.3415 14.1183C24.8915 13.7262 25.5068 13.4757 26.1874 13.3668V13.2525C25.2944 13.0728 24.5702 12.6399 24.0148 11.9538C23.4594 11.2623 23.1817 10.4592 23.1817 9.54439C23.1817 8.67862 23.4349 7.90814 23.9413 7.23295C24.4477 6.55232 25.142 6.0187 26.0241 5.6321C26.9116 5.24006 27.9189 5.04403 29.0461 5.04403C30.1732 5.04403 31.1778 5.24006 32.0599 5.6321C32.9475 6.02415 33.6444 6.56049 34.1508 7.24112C34.6572 7.91631 34.9131 8.68407 34.9186 9.54439C34.9131 10.4646 34.63 11.2678 34.0692 11.9538C33.5083 12.6399 32.7896 13.0728 31.9129 13.2525V13.3668C32.5827 13.4757 33.1898 13.7262 33.7343 14.1183C34.2842 14.5049 34.7198 14.9922 35.0411 15.5803C35.3678 16.1629 35.5339 16.8027 35.5393 17.4996C35.5339 18.4035 35.2535 19.2121 34.6981 19.9254C34.1427 20.6387 33.3749 21.2023 32.3948 21.6161C31.4201 22.0245 30.3039 22.2287 29.0461 22.2287ZM29.0461 19.6314C29.6069 19.6314 30.097 19.5307 30.5162 19.3292C30.9355 19.1223 31.2622 18.8391 31.4964 18.4798C31.7359 18.1149 31.8557 17.6957 31.8557 17.2219C31.8557 16.7373 31.7332 16.3099 31.4882 15.9396C31.2432 15.5639 30.911 15.2699 30.4917 15.0575C30.0725 14.8397 29.5906 14.7308 29.0461 14.7308C28.507 14.7308 28.0251 14.8397 27.6004 15.0575C27.1757 15.2699 26.8408 15.5639 26.5958 15.9396C26.3562 16.3099 26.2364 16.7373 26.2364 17.2219C26.2364 17.6957 26.3535 18.1149 26.5876 18.4798C26.8218 18.8391 27.1512 19.1223 27.5759 19.3292C28.0006 19.5307 28.4907 19.6314 29.0461 19.6314ZM29.0461 12.158C29.5144 12.158 29.9309 12.0627 30.2957 11.8722C30.6605 11.6816 30.9464 11.4175 31.1533 11.0799C31.3602 10.7423 31.4637 10.353 31.4637 9.91193C31.4637 9.47633 31.3602 9.09517 31.1533 8.76847C30.9464 8.43632 30.6633 8.17767 30.3039 7.99254C29.9445 7.80196 29.5252 7.70668 29.0461 7.70668C28.5724 7.70668 28.1531 7.80196 27.7883 7.99254C27.4234 8.17767 27.1376 8.43632 26.9307 8.76847C26.7292 9.09517 26.6285 9.47633 26.6285 9.91193C26.6285 10.353 26.7319 10.7423 26.9388 11.0799C27.1457 11.4175 27.4316 11.6816 27.7964 11.8722C28.1613 12.0627 28.5778 12.158 29.0461 12.158Z" fill="#FF5722"/>
<path d="M62.9184 16.3201C62.6594 16.5711 62.5404 16.9341 62.5994 17.2901L63.4884 22.2101C63.5634 22.6271 63.3874 23.0491 63.0384 23.2901C62.6964 23.5401 62.2414 23.5701 61.8684 23.3701L57.4394 21.0601C57.2854 20.9781 57.1144 20.9341 56.9394 20.9291H56.6684C56.5744 20.9431 56.4824 20.9731 56.3984 21.0191L51.9684 23.3401C51.7494 23.4501 51.5014 23.4891 51.2584 23.4501C50.6664 23.3381 50.2714 22.7741 50.3684 22.1791L51.2584 17.2591C51.3174 16.9001 51.1984 16.5351 50.9394 16.2801L47.3284 12.7801C47.0264 12.4871 46.9214 12.0471 47.0594 11.6501C47.1934 11.2541 47.5354 10.9651 47.9484 10.9001L52.9184 10.1791C53.2964 10.1401 53.6284 9.91012 53.7984 9.57012L55.9884 5.08012C56.0404 4.98012 56.1074 4.88812 56.1884 4.81012L56.2784 4.74012C56.3254 4.68812 56.3794 4.64512 56.4394 4.61012L56.5484 4.57012L56.7184 4.50012H57.1394C57.5154 4.53912 57.8464 4.76412 58.0194 5.10012L60.2384 9.57012C60.3984 9.89712 60.7094 10.1241 61.0684 10.1791L66.0384 10.9001C66.4584 10.9601 66.8094 11.2501 66.9484 11.6501C67.0794 12.0511 66.9664 12.4911 66.6584 12.7801L62.9184 16.3201Z" fill="#FF5722"/>
</svg>
