<svg width="70" height="28" viewBox="0 0 70 28" fill="none" xmlns="http://www.w3.org/2000/svg">
<path d="M8.13189 22.2287C6.97753 22.2287 5.94841 22.0163 5.04453 21.5916C4.14609 21.1669 3.43279 20.5816 2.90461 19.8356C2.37644 19.0896 2.10146 18.2347 2.07968 17.271H5.51008C5.5482 17.9189 5.82045 18.4444 6.32684 18.8473C6.83324 19.2502 7.43492 19.4517 8.13189 19.4517C8.68728 19.4517 9.17734 19.3292 9.60206 19.0842C10.0322 18.8337 10.3671 18.4879 10.6067 18.0469C10.8517 17.6004 10.9742 17.0885 10.9742 16.5114C10.9742 15.9233 10.849 15.406 10.5985 14.9595C10.3535 14.513 10.0132 14.1645 9.57755 13.9141C9.14195 13.6636 8.64372 13.5356 8.08288 13.5302C7.59282 13.5302 7.11638 13.6309 6.65355 13.8324C6.19616 14.0339 5.83951 14.3088 5.58359 14.6573L2.43906 14.0938L3.23132 5.27273H13.4572V8.16406H6.14716L5.71427 12.354H5.81228C6.10632 11.9402 6.55009 11.5972 7.1436 11.3249C7.73712 11.0527 8.40142 10.9165 9.1365 10.9165C10.1438 10.9165 11.0423 11.1534 11.8318 11.6271C12.6214 12.1009 13.2448 12.7515 13.7022 13.5792C14.1596 14.4014 14.3856 15.3488 14.3801 16.4215C14.3856 17.5487 14.1242 18.5505 13.596 19.4272C13.0733 20.2984 12.3409 20.9845 11.3989 21.4854C10.4624 21.9809 9.37336 22.2287 8.13189 22.2287ZM18.3741 22.2124C17.835 22.2124 17.3722 22.0218 16.9856 21.6406C16.6044 21.254 16.4138 20.7912 16.4138 20.2521C16.4138 19.7185 16.6044 19.2611 16.9856 18.88C17.3722 18.4988 17.835 18.3082 18.3741 18.3082C18.8968 18.3082 19.3542 18.4988 19.7462 18.88C20.1383 19.2611 20.3343 19.7185 20.3343 20.2521C20.3343 20.6115 20.2417 20.9409 20.0566 21.2404C19.8769 21.5344 19.6401 21.7713 19.346 21.951C19.052 22.1252 18.728 22.2124 18.3741 22.2124ZM29.043 22.3675C27.6382 22.3621 26.4294 22.0163 25.4166 21.3303C24.4093 20.6442 23.6333 19.6504 23.0888 18.3491C22.5498 17.0477 22.283 15.4822 22.2884 13.6527C22.2884 11.8286 22.5579 10.274 23.097 8.98899C23.6415 7.70395 24.4174 6.72656 25.4248 6.05682C26.4375 5.38163 27.6436 5.04403 29.043 5.04403C30.4424 5.04403 31.6458 5.38163 32.6531 6.05682C33.6659 6.73201 34.4445 7.71212 34.989 8.99716C35.5335 10.2768 35.8031 11.8286 35.7976 13.6527C35.7976 15.4877 35.5254 17.0559 34.9809 18.3572C34.4418 19.6586 33.6686 20.6523 32.6613 21.3384C31.6539 22.0245 30.4478 22.3675 29.043 22.3675ZM29.043 19.4354C30.0014 19.4354 30.7664 18.9535 31.3381 17.9897C31.9099 17.0259 32.193 15.5803 32.1876 13.6527C32.1876 12.384 32.0569 11.3277 31.7955 10.4837C31.5396 9.63968 31.1748 9.00533 30.701 8.58061C30.2328 8.15589 29.6801 7.94354 29.043 7.94354C28.0901 7.94354 27.3278 8.41998 26.7561 9.37287C26.1844 10.3258 25.8958 11.7524 25.8903 13.6527C25.8903 14.9377 26.0183 16.0104 26.2742 16.8707C26.5356 17.7256 26.9031 18.3681 27.3768 18.7983C27.8505 19.223 28.4059 19.4354 29.043 19.4354Z" fill="#FF5722"/>
<path d="M63.5851 16.3201C63.3261 16.5711 63.2071 16.9341 63.2661 17.2901L64.1551 22.2101C64.2301 22.6271 64.0541 23.0491 63.7051 23.2901C63.3631 23.5401 62.9081 23.5701 62.5351 23.3701L58.1061 21.0601C57.9521 20.9781 57.7811 20.9341 57.6061 20.9291H57.3351C57.2411 20.9431 57.1491 20.9731 57.0651 21.0191L52.6351 23.3401C52.4161 23.4501 52.1681 23.4891 51.9251 23.4501C51.3331 23.3381 50.9381 22.7741 51.0351 22.1791L51.9251 17.2591C51.9841 16.9001 51.8651 16.5351 51.6061 16.2801L47.9951 12.7801C47.6931 12.4871 47.5881 12.0471 47.7261 11.6501C47.8601 11.2541 48.2021 10.9651 48.6151 10.9001L53.5851 10.1791C53.9631 10.1401 54.2951 9.91012 54.4651 9.57012L56.6551 5.08012C56.7071 4.98012 56.7741 4.88812 56.8551 4.81012L56.9451 4.74012C56.9921 4.68812 57.0461 4.64512 57.1061 4.61012L57.2151 4.57012L57.3851 4.50012H57.8061C58.1821 4.53912 58.5131 4.76412 58.6861 5.10012L60.9051 9.57012C61.0651 9.89712 61.3761 10.1241 61.7351 10.1791L66.7051 10.9001C67.1251 10.9601 67.4761 11.2501 67.6151 11.6501C67.7461 12.0511 67.6331 12.4911 67.3251 12.7801L63.5851 16.3201Z" fill="#FF5722"/>
</svg>
