<svg width="147" height="41" viewBox="0 0 147 41" fill="none" xmlns="http://www.w3.org/2000/svg">
<path fill-rule="evenodd" clip-rule="evenodd" d="M8.55273 4.09787C7.12207 5.09823 5.82837 6.28098 4.70532 7.6124C9.29462 7.18633 15.1252 7.88204 21.8944 11.2667C29.123 14.8809 34.9438 15.0031 38.9948 14.2217C38.6272 13.1088 38.1644 12.0392 37.6163 11.0224C32.979 11.5115 27.034 10.8641 20.1056 7.39998C15.706 5.20018 11.8278 4.29401 8.55273 4.09787ZM34.9074 7.16665C31.2453 3.075 25.9234 0.5 20 0.5C18.2605 0.5 16.5727 0.722107 14.9637 1.13948C17.1429 1.73409 19.4579 2.60399 21.8944 3.82227C26.967 6.35853 31.3464 7.17516 34.9074 7.16665ZM39.8609 18.1281C34.9669 19.0945 28.2088 18.896 20.1056 14.8444C12.53 11.0566 6.50043 11.1043 2.4339 12.008C2.224 12.0546 2.01904 12.1036 1.81903 12.1546C1.28662 13.3125 0.861634 14.5301 0.556702 15.7945C0.882386 15.7075 1.21893 15.6248 1.56616 15.5476C6.49957 14.4513 13.4701 14.4989 21.8944 18.7111C29.4701 22.4989 35.4996 22.4512 39.5662 21.5475C39.7055 21.5166 39.8428 21.4846 39.9778 21.4516C39.9926 21.1363 40 20.819 40 20.5C40 19.6975 39.9528 18.906 39.8609 18.1281ZM39.3248 25.6723C34.4783 26.5196 27.917 26.1944 20.1056 22.2888C12.53 18.501 6.50043 18.5487 2.4339 19.4524C1.53125 19.6529 0.719239 19.8972 0.00293 20.1551C0.000977 20.2698 0 20.3848 0 20.5C0 31.5457 8.95429 40.5 20 40.5C29.2571 40.5 37.0453 34.2109 39.3248 25.6723Z" fill="url(#paint0_linear_1_41)"/>
<path d="M56.6477 15.8636V12.0455H71.8181V15.8636H66.5681V29.5H61.8977V15.8636H56.6477ZM72.3103 29.5V16.4091H76.8785V18.8977H77.0149C77.2535 17.9773 77.6313 17.304 78.1484 16.8778C78.6711 16.4517 79.2819 16.2386 79.9808 16.2386C80.1853 16.2386 80.387 16.2557 80.5859 16.2898C80.7904 16.3182 80.9864 16.3608 81.1739 16.4176V20.4318C80.941 20.3523 80.6541 20.2926 80.3131 20.2528C79.9722 20.2131 79.6796 20.1932 79.4353 20.1932C78.9751 20.1932 78.5603 20.2983 78.191 20.5085C77.8274 20.7131 77.5404 21.0028 77.3302 21.3778C77.12 21.7472 77.0149 22.1818 77.0149 22.6818V29.5H72.3103ZM85.7549 29.7045C84.9197 29.7045 84.181 29.5682 83.539 29.2955C82.9026 29.017 82.4026 28.5966 82.039 28.0341C81.6754 27.4716 81.4935 26.7557 81.4935 25.8864C81.4935 25.1705 81.6157 24.5597 81.86 24.054C82.1043 23.5426 82.4453 23.125 82.8828 22.8011C83.3203 22.4773 83.8288 22.2301 84.4083 22.0597C84.9935 21.8892 85.6242 21.7784 86.3004 21.7273C87.0333 21.6705 87.6214 21.6023 88.0646 21.5227C88.5134 21.4375 88.8373 21.321 89.0362 21.1733C89.235 21.0199 89.3345 20.8182 89.3345 20.5682V20.5341C89.3345 20.1932 89.2038 19.9318 88.9424 19.75C88.681 19.5682 88.3458 19.4773 87.9367 19.4773C87.4879 19.4773 87.1214 19.5767 86.8373 19.7756C86.5589 19.9687 86.3913 20.267 86.3345 20.6705H82.0049C82.0617 19.875 82.3146 19.142 82.7634 18.4716C83.218 17.7955 83.8799 17.2557 84.7492 16.8523C85.6185 16.4432 86.7038 16.2386 88.0049 16.2386C88.9424 16.2386 89.7833 16.3494 90.5276 16.571C91.272 16.7869 91.9055 17.0909 92.4282 17.483C92.9509 17.8693 93.3487 18.3239 93.6214 18.8466C93.8998 19.3636 94.039 19.9261 94.039 20.5341V29.5H89.6413V27.6591H89.539C89.2776 28.1477 88.9595 28.5426 88.5845 28.8438C88.2151 29.1449 87.7918 29.3636 87.3146 29.5C86.843 29.6364 86.3231 29.7045 85.7549 29.7045ZM87.289 26.7386C87.647 26.7386 87.9822 26.6648 88.2947 26.517C88.6129 26.3693 88.8714 26.1562 89.0703 25.8778C89.2691 25.5994 89.3685 25.2614 89.3685 24.8636V23.7727C89.2435 23.8239 89.11 23.8722 88.968 23.9176C88.8316 23.9631 88.6839 24.0057 88.5248 24.0455C88.3714 24.0852 88.2066 24.1222 88.0305 24.1562C87.86 24.1903 87.681 24.2216 87.4935 24.25C87.1299 24.3068 86.8316 24.4006 86.5987 24.5312C86.3714 24.6562 86.2009 24.8125 86.0873 25C85.9793 25.1818 85.9254 25.3864 85.9254 25.6136C85.9254 25.9773 86.0532 26.2557 86.3089 26.4489C86.5646 26.642 86.8913 26.7386 87.289 26.7386ZM109.011 16.4091L104.614 29.5H99.159L94.7613 16.4091H99.7045L101.818 25.0682H101.954L104.068 16.4091H109.011ZM115.054 12.0455V29.5H110.349V12.0455H115.054ZM123.758 29.7386C122.337 29.7386 121.121 29.4574 120.11 28.8949C119.099 28.3267 118.323 27.5369 117.783 26.5256C117.244 25.5085 116.974 24.3295 116.974 22.9886C116.974 21.6477 117.244 20.4716 117.783 19.4602C118.323 18.4432 119.099 17.6534 120.11 17.0909C121.121 16.5227 122.337 16.2386 123.758 16.2386C125.178 16.2386 126.394 16.5227 127.405 17.0909C128.417 17.6534 129.192 18.4432 129.732 19.4602C130.272 20.4716 130.542 21.6477 130.542 22.9886C130.542 24.3295 130.272 25.5085 129.732 26.5256C129.192 27.5369 128.417 28.3267 127.405 28.8949C126.394 29.4574 125.178 29.7386 123.758 29.7386ZM123.792 26.2614C124.19 26.2614 124.533 26.1278 124.823 25.8608C125.113 25.5937 125.337 25.2131 125.496 24.7188C125.655 24.2244 125.735 23.6364 125.735 22.9545C125.735 22.267 125.655 21.679 125.496 21.1903C125.337 20.696 125.113 20.3153 124.823 20.0483C124.533 19.7812 124.19 19.6477 123.792 19.6477C123.371 19.6477 123.011 19.7812 122.709 20.0483C122.408 20.3153 122.178 20.696 122.019 21.1903C121.86 21.679 121.78 22.267 121.78 22.9545C121.78 23.6364 121.86 24.2244 122.019 24.7188C122.178 25.2131 122.408 25.5937 122.709 25.8608C123.011 26.1278 123.371 26.2614 123.792 26.2614ZM138.758 34.6818C137.445 34.6818 136.32 34.4943 135.383 34.1193C134.451 33.75 133.727 33.2386 133.209 32.5852C132.698 31.9375 132.411 31.1932 132.349 30.3523H136.883C136.928 30.6307 137.042 30.8551 137.224 31.0256C137.405 31.196 137.638 31.3182 137.923 31.392C138.212 31.4716 138.536 31.5114 138.894 31.5114C139.502 31.5114 140.005 31.3636 140.403 31.0682C140.806 30.7727 141.008 30.2386 141.008 29.4659V27.25H140.871C140.701 27.6932 140.44 28.071 140.087 28.3835C139.735 28.6903 139.312 28.9261 138.817 29.0909C138.323 29.25 137.78 29.3295 137.19 29.3295C136.258 29.3295 135.4 29.1136 134.616 28.6818C133.837 28.25 133.212 27.5653 132.741 26.6278C132.275 25.6903 132.042 24.4659 132.042 22.9545C132.042 21.375 132.286 20.0909 132.775 19.1023C133.269 18.1136 133.905 17.3892 134.684 16.929C135.468 16.4688 136.292 16.2386 137.155 16.2386C137.803 16.2386 138.371 16.3523 138.86 16.5795C139.349 16.8011 139.758 17.0994 140.087 17.4744C140.417 17.8437 140.667 18.25 140.837 18.6932H140.94V16.4091H145.644V29.4659C145.644 30.5739 145.357 31.5142 144.783 32.2869C144.215 33.0653 143.414 33.6591 142.38 34.0682C141.346 34.4773 140.138 34.6818 138.758 34.6818ZM138.928 25.9886C139.36 25.9886 139.729 25.8693 140.036 25.6307C140.349 25.3864 140.587 25.0398 140.752 24.5909C140.923 24.1364 141.008 23.5909 141.008 22.9545C141.008 22.3068 140.923 21.7528 140.752 21.2926C140.587 20.8267 140.349 20.4716 140.036 20.2273C139.729 19.9773 139.36 19.8523 138.928 19.8523C138.496 19.8523 138.127 19.9773 137.82 20.2273C137.519 20.4716 137.286 20.8267 137.121 21.2926C136.962 21.7528 136.883 22.3068 136.883 22.9545C136.883 23.6023 136.962 24.1534 137.121 24.608C137.286 25.0568 137.519 25.4006 137.82 25.6392C138.127 25.8722 138.496 25.9886 138.928 25.9886Z" fill="#191825"/>
<defs>
<linearGradient id="paint0_linear_1_41" x1="36" y1="43.7" x2="-3.73321" y2="36.0931" gradientUnits="userSpaceOnUse">
<stop stop-color="#5D50C6"/>
<stop offset="1" stop-color="#F85E9F"/>
</linearGradient>
</defs>
</svg>
