<svg width="17" height="17" viewBox="0 0 17 17" fill="none" xmlns="http://www.w3.org/2000/svg">
<path d="M11.9169 1.6665H5.08354C3.19656 1.6665 1.66687 3.1962 1.66687 5.08317V11.9165C1.66687 13.8035 3.19656 15.3332 5.08354 15.3332H11.9169C13.8038 15.3332 15.3335 13.8035 15.3335 11.9165V5.08317C15.3335 3.1962 13.8038 1.6665 11.9169 1.6665Z" stroke="white" stroke-width="1.36667" stroke-linecap="round" stroke-linejoin="round"/>
<path d="M11.2331 8.06922C11.3175 8.63792 11.2203 9.21873 10.9555 9.72904C10.6907 10.2394 10.2718 10.6532 9.75824 10.9117C9.2447 11.1701 8.66273 11.2601 8.09511 11.1688C7.52749 11.0774 7.00313 10.8094 6.5966 10.4029C6.19007 9.99638 5.92208 9.47202 5.83074 8.9044C5.7394 8.33678 5.82937 7.75481 6.08785 7.24127C6.34633 6.72773 6.76015 6.30877 7.27046 6.04398C7.78078 5.77919 8.36159 5.68205 8.93029 5.76638C9.51039 5.85241 10.0474 6.12272 10.4621 6.53739C10.8768 6.95207 11.1471 7.48912 11.2331 8.06922Z" stroke="white" stroke-width="1.36667" stroke-linecap="round" stroke-linejoin="round"/>
<path d="M12.2584 4.74121H12.2649" stroke="white" stroke-width="1.36667" stroke-linecap="round" stroke-linejoin="round"/>
</svg>
