<svg width="16" height="15" viewBox="0 0 16 15" fill="none" xmlns="http://www.w3.org/2000/svg">
<path d="M10.7997 5.19946C11.9136 5.19946 12.9819 5.64196 13.7696 6.42961C14.5572 7.21727 14.9997 8.28555 14.9997 9.39946V14.2995H12.1997V9.39946C12.1997 9.02816 12.0522 8.67206 11.7897 8.40951C11.5271 8.14696 11.171 7.99946 10.7997 7.99946C10.4284 7.99946 10.0723 8.14696 9.80978 8.40951C9.54723 8.67206 9.39973 9.02816 9.39973 9.39946V14.2995H6.59973V9.39946C6.59973 8.28555 7.04223 7.21727 7.82988 6.42961C8.61754 5.64196 9.68582 5.19946 10.7997 5.19946V5.19946Z" stroke="white" stroke-linecap="round" stroke-linejoin="round"/>
<path d="M3.8 5.90015H1V14.3001H3.8V5.90015Z" stroke="white" stroke-linecap="round" stroke-linejoin="round"/>
<path d="M2.4 3.79988C3.1732 3.79988 3.8 3.17308 3.8 2.39988C3.8 1.62668 3.1732 0.999878 2.4 0.999878C1.6268 0.999878 1 1.62668 1 2.39988C1 3.17308 1.6268 3.79988 2.4 3.79988Z" stroke="white" stroke-linecap="round" stroke-linejoin="round"/>
</svg>
