<svg width="17" height="14" viewBox="0 0 17 14" fill="none" xmlns="http://www.w3.org/2000/svg">
<path d="M16.3334 1.04007C15.679 1.50165 14.9545 1.85468 14.1877 2.08557C13.7762 1.61237 13.2292 1.27698 12.6209 1.12476C12.0125 0.972534 11.372 1.01082 10.7861 1.23445C10.2002 1.45808 9.69715 1.85625 9.34492 2.37511C8.99269 2.89398 8.80831 3.5085 8.81672 4.13557V4.81891C7.61585 4.85005 6.42592 4.58371 5.3529 4.04363C4.27989 3.50355 3.3571 2.70648 2.66672 1.72341C2.66672 1.72341 -0.0666178 7.87341 6.08338 10.6067C4.67608 11.562 2.99961 12.041 1.30005 11.9734C7.45005 15.3901 14.9667 11.9734 14.9667 4.11507C14.9661 3.92473 14.9478 3.73486 14.912 3.54791C15.6095 2.86013 16.1016 1.99176 16.3334 1.04007V1.04007Z" stroke="white" stroke-width="1.36667" stroke-linecap="round" stroke-linejoin="round"/>
</svg>
